<svg xmlns="http://www.w3.org/2000/svg" viewBox="0 0 68 68">
  <defs>
    <style>
      .cls-1 {
        fill: #707070;
      }
    </style>
  </defs>
  <g id="Group_73" data-name="Group 73" transform="translate(-649 -31)">
    <g id="Group_31" data-name="Group 31" transform="translate(8 15)">
      <path id="Path_35" data-name="Path 35" class="cls-1" d="M57.883,33.442,24.38,14.223a1.775,1.775,0,0,0-1.57-.074A1.271,1.271,0,0,0,22,15.281V53.719a1.271,1.271,0,0,0,.812,1.133,1.767,1.767,0,0,0,1.569-.074l33.5-19.219a1.174,1.174,0,0,0,0-2.117ZM25.046,51.293V17.707L54.323,34.5Z" transform="translate(640.005 16)"/>
      <path id="Path_36" data-name="Path 36" class="cls-1" d="M34,0A34,34,0,1,0,68,34,34.039,34.039,0,0,0,34,0Zm0,65.733A31.733,31.733,0,1,1,65.733,34,31.77,31.77,0,0,1,34,65.733Z" transform="translate(641 16)"/>
    </g>
  </g>
</svg>
